<svg width="147" height="74" viewBox="0 0 147 74" fill="none" xmlns="http://www.w3.org/2000/svg">
<path d="M33.3081 28.1313L27.866 31.4318L21.8325 14.2414L14.3793 36.6577L6.68945 39.5457L21.8325 0L33.3081 28.1313Z" fill="white"/>
<path d="M35.1667 34L29.5 37.6718L35.1667 59.5H43.5L35.1667 34Z" fill="white"/>
<path d="M0 59.5L5.67083 41.9521L13.9474 38.4422L12.9128 41.9521L43 25.5L0 59.5Z" fill="#EF7F2D"/>
<path d="M59.2597 60.4167C57.0991 60.4167 55.2935 59.9537 53.8428 59.0277C52.423 58.1018 51.3427 56.8209 50.602 55.185C49.8612 53.5492 49.4291 51.651 49.3056 49.4904L53.9354 48.2403C54.028 49.5675 54.2286 50.8485 54.5373 52.0831C54.8768 53.3177 55.4169 54.3362 56.1577 55.1387C56.8985 55.9104 57.9325 56.2962 59.2597 56.2962C60.6177 56.2962 61.6363 55.9258 62.3153 55.185C63.0252 54.4134 63.3802 53.3177 63.3802 51.8979C63.3802 50.2003 62.9944 48.8422 62.2227 47.8237C61.4511 46.7742 60.4788 45.7248 59.306 44.6754L53.0094 39.1197C51.7748 38.0394 50.8643 36.8665 50.2779 35.601C49.6914 34.3047 49.3982 32.7151 49.3982 30.8323C49.3982 28.0853 50.1853 25.9556 51.7594 24.4432C53.3335 22.9308 55.4787 22.1746 58.1948 22.1746C59.6763 22.1746 60.9727 22.3753 62.0838 22.7765C63.2258 23.1469 64.1672 23.7333 64.908 24.5358C65.6796 25.3383 66.2815 26.3569 66.7136 27.5915C67.1766 28.7952 67.4852 30.215 67.6396 31.8509L63.195 33.0546C63.1024 31.82 62.9172 30.6934 62.6394 29.6749C62.3616 28.6255 61.8678 27.7921 61.1579 27.1748C60.4788 26.5266 59.4911 26.2026 58.1948 26.2026C56.8985 26.2026 55.8799 26.5575 55.1391 27.2674C54.4292 27.9464 54.0743 28.965 54.0743 30.3231C54.0743 31.4651 54.2595 32.4065 54.6299 33.1472C55.0311 33.888 55.6639 34.6442 56.5281 35.4158L62.8709 40.9716C64.2907 42.2062 65.5407 43.6877 66.621 45.4162C67.7013 47.1138 68.2414 49.1354 68.2414 51.4812C68.2414 53.3331 67.8556 54.9381 67.084 56.2962C66.3124 57.6234 65.2475 58.6419 63.8894 59.3518C62.5622 60.0617 61.019 60.4167 59.2597 60.4167ZM72.2997 60V22.4987H81.6056C83.8588 22.4987 85.649 22.9154 86.9762 23.7488C88.3342 24.5513 89.3219 25.7241 89.9392 27.2674C90.5565 28.8107 90.8652 30.678 90.8652 32.8694C90.8652 34.8448 90.5102 36.5578 89.8003 38.0085C89.1213 39.4592 88.1028 40.5858 86.7447 41.3883C85.3866 42.1599 83.689 42.5457 81.6519 42.5457H77.5314V60H72.2997ZM77.5314 38.7956H79.9389C81.4513 38.7956 82.6396 38.6258 83.5038 38.2863C84.3681 37.9468 84.9854 37.3603 85.3557 36.527C85.7261 35.6628 85.9113 34.459 85.9113 32.9157C85.9113 31.1256 85.7724 29.7521 85.4946 28.7952C85.2477 27.8384 84.7076 27.1748 83.8742 26.8044C83.0409 26.434 81.7445 26.2489 79.9852 26.2489H77.5314V38.7956ZM94.8222 60V22.4987H99.9613V60H94.8222ZM106.028 60V22.4987H113.575C116.075 22.4987 118.143 22.8382 119.779 23.5173C121.415 24.1654 122.619 25.2303 123.39 26.7118C124.193 28.1625 124.594 30.0761 124.594 32.4528C124.594 33.9034 124.44 35.2306 124.131 36.4344C123.822 37.6073 123.328 38.6104 122.649 39.4437C121.97 40.2462 121.075 40.8327 119.964 41.2031L125.288 60H120.242L115.334 42.4068H111.26V60H106.028ZM111.26 38.6567H113.251C114.732 38.6567 115.936 38.4715 116.862 38.1011C117.788 37.7307 118.467 37.098 118.899 36.2029C119.331 35.3078 119.547 34.0578 119.547 32.4528C119.547 30.2613 119.146 28.6872 118.344 27.7304C117.541 26.7427 115.952 26.2489 113.575 26.2489H111.26V38.6567ZM130.036 60V22.4987H144.574V26.3877H135.268V38.7956H142.815V42.4994H135.268V56.2499H144.667V60H130.036Z" fill="white"/>
</svg>
