<svg width="16" height="16" viewBox="0 0 16 16" fill="none" xmlns="http://www.w3.org/2000/svg">
<g clip-path="url(#clip0_1076_4623)">
<path d="M13.3296 6.6648C13.3296 9.9925 9.638 13.4582 8.39836 14.5285C8.28287 14.6154 8.1423 14.6623 7.99781 14.6623C7.85332 14.6623 7.71274 14.6154 7.59726 14.5285C6.35761 13.4582 2.66602 9.9925 2.66602 6.6648C2.66602 5.25072 3.22776 3.89456 4.22766 2.89465C5.22757 1.89475 6.58373 1.33301 7.99781 1.33301C9.41189 1.33301 10.768 1.89475 11.768 2.89465C12.7679 3.89456 13.3296 5.25072 13.3296 6.6648Z" fill="white" stroke="white" stroke-width="2" stroke-linecap="round" stroke-linejoin="round"/>
<path d="M7.99747 8.66388C9.10172 8.66388 9.99689 7.76871 9.99689 6.66446C9.99689 5.56021 9.10172 4.66504 7.99747 4.66504C6.89322 4.66504 5.99805 5.56021 5.99805 6.66446C5.99805 7.76871 6.89322 8.66388 7.99747 8.66388Z" stroke="#3D2817" stroke-width="2" stroke-linecap="round" stroke-linejoin="round"/>
</g>
<defs>
<clipPath id="clip0_1076_4623">
<rect width="15.9954" height="15.9954" fill="white"/>
</clipPath>
</defs>
</svg>
