<svg width="17" height="21" viewBox="0 0 17 21" fill="none" xmlns="http://www.w3.org/2000/svg">
<path d="M16 8.6001C16 13.3435 10.8072 18.2836 9.06344 19.8093C8.90099 19.9331 8.70325 20 8.5 20C8.29675 20 8.09901 19.9331 7.93656 19.8093C6.19281 18.2836 1 13.3435 1 8.6001C1 6.58442 1.79018 4.65131 3.1967 3.22602C4.60322 1.80072 6.51088 1 8.5 1C10.4891 1 12.3968 1.80072 13.8033 3.22602C15.2098 4.65131 16 6.58442 16 8.6001Z" fill="#E67E22" stroke="#E67E22" stroke-width="2" stroke-linecap="round" stroke-linejoin="round"/>
<path d="M8.49805 11.4491C10.0513 11.4491 11.3105 10.1731 11.3105 8.59906C11.3105 7.02503 10.0513 5.74902 8.49805 5.74902C6.94475 5.74902 5.68555 7.02503 5.68555 8.59906C5.68555 10.1731 6.94475 11.4491 8.49805 11.4491Z" stroke="#FCF2E9" stroke-width="2" stroke-linecap="round" stroke-linejoin="round"/>
</svg>
