<svg width="20" height="20" viewBox="0 0 20 20" fill="none" xmlns="http://www.w3.org/2000/svg">
<path d="M18.8239 19.99C16.5103 19.99 14.2244 19.4858 11.9662 18.4774C9.70811 17.469 7.65358 16.039 5.80265 14.1873C3.95173 12.3357 2.52207 10.2812 1.51369 8.02376C0.505303 5.76637 0.00074037 3.48048 0 1.16608C0 0.832917 0.111055 0.555278 0.333167 0.333167C0.555278 0.111055 0.832917 0 1.16608 0H5.66383C5.92296 0 6.15433 0.088104 6.35793 0.264312C6.56153 0.44052 6.68184 0.648564 6.71886 0.888444L7.44072 4.77539C7.47774 5.07154 7.46849 5.32141 7.41296 5.52501C7.35743 5.72862 7.25563 5.90445 7.10755 6.05253L4.41446 8.77339C4.78464 9.45823 5.22405 10.1198 5.73269 10.758C6.24132 11.3962 6.80141 12.0118 7.41296 12.6048C7.98675 13.1786 8.5883 13.7109 9.21761 14.2018C9.84693 14.6926 10.5133 15.1413 11.2166 15.5478L13.8264 12.938C13.993 12.7714 14.2107 12.6466 14.4794 12.5637C14.7482 12.4808 15.0117 12.4575 15.2701 12.4937L19.1016 13.2711C19.3607 13.3452 19.5735 13.4796 19.7401 13.6743C19.9067 13.869 19.99 14.0863 19.99 14.3262V18.8239C19.99 19.1571 19.8789 19.4347 19.6568 19.6568C19.4347 19.8789 19.1571 19.99 18.8239 19.99Z" fill="#E67E22"/>
</svg>
