<svg width="24" height="24" viewBox="0 0 24 24" fill="none" xmlns="http://www.w3.org/2000/svg">
<path d="M7.99667 11.995C7.99667 13.0079 8.04198 13.9899 8.12621 14.9271H15.8638C15.948 13.9899 15.9933 13.0079 15.9933 11.995C15.9933 10.9821 15.948 10.0001 15.8633 9.06289H8.12728C8.04198 10.0001 7.99667 10.9821 7.99667 11.995ZM6.52155 9.06289C6.43811 10.038 6.39667 11.0163 6.39733 11.995C6.39733 13.0004 6.43998 13.9819 6.52102 14.9271H0.360916C0.125281 13.9888 0 13.0063 0 11.995C0 10.9837 0.125281 10.0012 0.360916 9.06289H6.52155ZM8.316 7.46356H15.6735C15.4368 5.84983 15.0785 4.41096 14.6344 3.22905C14.2191 2.12391 13.7447 1.28426 13.259 0.736226C12.7723 0.186056 12.3426 0 11.995 0C11.6474 0 11.2177 0.186589 10.7305 0.735693C10.2448 1.2848 9.77033 2.12391 9.35503 3.22905C8.91095 4.41096 8.5527 5.84983 8.31547 7.46356M17.4685 9.06289C17.55 10.0081 17.5927 10.9896 17.5927 11.995C17.5927 13.0004 17.55 13.9819 17.469 14.9271H23.6291C23.8647 13.9888 23.99 13.0063 23.99 11.995C23.99 10.9837 23.8647 10.0012 23.6291 9.06289H17.4685ZM23.105 7.46356H17.2893C17.0388 5.65737 16.6421 4.02499 16.1319 2.66662C15.8062 1.79978 15.4266 1.02357 14.9943 0.377976C18.6834 1.32798 21.6848 3.98874 23.104 7.46356M6.70014 7.46356H0.885498C2.30411 3.98874 5.30605 1.32798 8.99518 0.378509C8.56336 1.02357 8.18326 1.79978 7.85752 2.66662C7.34734 4.02499 6.95124 5.65737 6.70067 7.46356M6.69907 16.5264H0.885498C2.30357 19.9997 5.30286 22.6594 8.98879 23.6104C8.55697 22.9654 8.17846 22.1892 7.85326 21.3234C7.34414 19.9639 6.94857 18.3326 6.69907 16.5264ZM14.6392 20.7615C15.0817 19.5796 15.4389 18.1407 15.6756 16.5264H8.3144C8.55057 18.1407 8.90775 19.5796 9.35077 20.7615C9.76553 21.8666 10.2395 22.7057 10.7262 23.2538C11.2124 23.8029 11.6431 23.99 11.995 23.99C12.3469 23.99 12.7776 23.8029 13.2638 23.2538C13.7505 22.7057 14.2245 21.8666 14.6392 20.7615ZM16.1367 21.3228C16.6459 19.9645 17.0414 18.3321 17.2909 16.5264H23.1045C21.6864 19.9997 18.6871 22.6594 15.0012 23.6104C15.433 22.9654 15.8115 22.1886 16.1367 21.3228Z" fill="#E67E22"/>
</svg>
