<svg width="24" height="24" viewBox="0 0 24 24" fill="none" xmlns="http://www.w3.org/2000/svg">
<path d="M13.3453 0.00843789C13.4924 0.00565397 13.6395 0.00287004 13.791 1.75707e-06C15.7989 -0.00154036 17.2062 1.01215 18.6165 2.48124C19.4162 3.45922 19.7878 4.96345 19.7857 6.24983C19.7724 6.43156 19.7591 6.6133 19.7454 6.80054C19.8585 6.80099 19.9715 6.80143 20.0881 6.80189C21.5142 6.86417 22.2188 7.34308 23.1823 8.43108C23.8105 9.45318 24.1468 10.42 23.9382 11.6382C23.5791 12.5484 23.1532 13.0899 22.3256 13.5386C21.8491 13.5975 21.8491 13.5975 21.3296 13.5893C21.1431 13.5876 20.9565 13.5859 20.7643 13.5842C20.5711 13.5799 20.3778 13.5755 20.1788 13.571C19.8843 13.5675 19.8843 13.5675 19.5838 13.564C19.1001 13.5579 18.6164 13.5486 18.1328 13.5386C18.1328 14.6789 18.1328 15.8192 18.1328 16.9941C18.5053 16.9941 18.8778 16.9941 19.2616 16.9941C19.2749 16.8943 19.2882 16.7945 19.3019 16.6917C19.4729 16.1422 19.6163 15.9423 20.0679 15.6119C20.8731 15.4531 21.4775 15.4814 22.1845 15.9359C22.6108 16.6971 22.6501 17.3374 22.4868 18.2035C22.0772 18.8552 21.8222 19.0267 21.1161 19.2293C20.5363 19.2404 20.2377 19.2169 19.7454 18.8946C19.5857 18.6095 19.4261 18.3244 19.2616 18.0307C18.623 17.9737 17.9844 17.9167 17.3265 17.858C17.3265 16.4326 17.3265 15.0072 17.3265 13.5386C16.475 13.5386 15.6235 13.5386 14.7463 13.5386C14.7463 15.8763 14.7463 18.2139 14.7463 20.6223C15.0656 20.7078 15.0656 20.7078 15.3913 20.7951C15.754 21.0801 15.8597 21.2378 15.9564 21.7116C15.9737 22.5246 15.9637 22.9162 15.4921 23.581C14.9178 23.9912 14.3395 24.0296 13.6628 23.986C13.2949 23.905 13.2949 23.905 12.8716 23.581C12.557 22.8149 12.5 22.1365 12.6499 21.3134C13.0329 20.7735 13.0329 20.7735 13.4562 20.4495C13.5626 20.4495 13.669 20.4495 13.7787 20.4495C13.7787 18.1689 13.7787 15.8883 13.7787 13.5386C12.6079 13.5386 11.4372 13.5386 10.231 13.5386C10.2318 14.5075 10.2355 15.4752 10.2467 16.4438C10.2496 16.7731 10.2509 17.1024 10.2503 17.4317C10.2499 17.9058 10.2556 18.3794 10.2625 18.8534C10.261 19.0001 10.2595 19.1468 10.258 19.298C10.2649 20.0735 10.2649 20.0735 10.6125 20.7248C10.8533 20.9326 11.1061 21.1241 11.3598 21.3134C11.4656 21.7575 11.4656 21.7575 11.4404 22.1989C11.4354 22.3454 11.4304 22.4919 11.4253 22.6429C11.3598 23.0411 11.3598 23.0411 11.0373 23.5594C10.9308 23.5594 10.8244 23.5594 10.7147 23.5594C10.7147 23.6735 10.7147 23.7875 10.7147 23.905C8.96154 24.0379 8.96154 24.0379 8.33613 23.581C8.04906 22.8121 7.98605 22.129 8.13456 21.3134C8.51755 20.7735 8.51755 20.7735 8.94086 20.4495C9.0473 20.4495 9.15373 20.4495 9.26339 20.4495C9.26339 18.1689 9.26339 15.8883 9.26339 13.5386C8.41193 13.5386 7.56047 13.5386 6.68321 13.5386C6.68321 14.964 6.68321 16.3894 6.68321 17.858C5.72531 17.9435 5.72531 17.9435 4.74807 18.0307C4.58842 18.3158 4.42877 18.6009 4.26429 18.8946C3.77197 19.2169 3.4734 19.2404 2.89356 19.2293C2.22502 19.0375 1.9655 18.7614 1.52284 18.2035C1.46963 18.1465 1.41641 18.0895 1.36158 18.0307C1.23571 16.8941 1.23571 16.8941 1.52662 16.3266C1.8761 15.8932 2.16184 15.6528 2.68821 15.5242C3.34012 15.4891 3.69878 15.559 4.26429 15.9251C4.58681 16.303 4.58681 16.303 4.74807 16.8213C5.12058 16.8783 5.4931 16.9353 5.8769 16.9941C5.8769 15.8538 5.8769 14.7135 5.8769 13.5386C5.43974 13.5507 5.43974 13.5507 4.99374 13.5629C4.60949 13.5694 4.22523 13.5757 3.84097 13.5818C3.6491 13.5876 3.45724 13.5934 3.25955 13.5994C1.48619 13.6206 1.48619 13.6206 0.716535 12.8476C0.0187609 11.9229 -0.0267513 11.1128 0.00849685 9.93811C0.0963253 9.17686 0.315348 8.63746 0.716535 8.00994C0.806337 7.85672 0.89614 7.70349 0.988664 7.54562C1.72934 6.75208 2.53186 6.25627 3.589 6.22823C3.94986 6.22011 3.94986 6.22011 4.26429 6.10945C4.47561 5.78734 4.59037 5.46282 4.72665 5.09779C5.07964 4.38184 5.67671 3.99645 6.36068 3.69064C6.90991 3.61371 7.42372 3.62426 7.9733 3.69064C8.00656 3.57305 8.03982 3.45546 8.07408 3.3343C8.71142 1.87553 9.93257 0.95897 11.225 0.204156C11.9282 -0.0137869 12.617 0.00571539 13.3453 0.00843789Z" fill="#F5EBEB"/>
<path d="M13.3453 0.00843789C13.4924 0.00565397 13.6395 0.00287004 13.791 1.75707e-06C15.7989 -0.00154036 17.2062 1.01215 18.6165 2.48124C19.4162 3.45922 19.7878 4.96345 19.7857 6.24983C19.7724 6.43156 19.7591 6.6133 19.7454 6.80054C19.8585 6.80099 19.9715 6.80143 20.0881 6.80189C21.5142 6.86417 22.2188 7.34308 23.1823 8.43108C23.8105 9.45318 24.1468 10.42 23.9382 11.6382C23.5791 12.5484 23.1532 13.0899 22.3256 13.5386C21.8491 13.5975 21.8491 13.5975 21.3296 13.5893C21.1431 13.5876 20.9565 13.5859 20.7643 13.5842C20.5711 13.5799 20.3778 13.5755 20.1788 13.571C19.8843 13.5675 19.8843 13.5675 19.5838 13.564C19.1001 13.5579 18.6164 13.5486 18.1328 13.5386C18.1328 14.6789 18.1328 15.8192 18.1328 16.9941C18.5053 16.9941 18.8778 16.9941 19.2616 16.9941C19.2749 16.8943 19.2882 16.7945 19.3019 16.6917C19.4729 16.1422 19.6163 15.9423 20.0679 15.6119C20.8731 15.4531 21.4775 15.4814 22.1845 15.9359C22.6108 16.6971 22.6501 17.3374 22.4868 18.2035C22.0772 18.8552 21.8222 19.0267 21.1161 19.2293C20.5363 19.2404 20.2377 19.2169 19.7454 18.8946C19.5857 18.6095 19.4261 18.3244 19.2616 18.0307C18.623 17.9737 17.9844 17.9167 17.3265 17.858C17.3265 16.4326 17.3265 15.0072 17.3265 13.5386C16.475 13.5386 15.6235 13.5386 14.7463 13.5386C14.7463 15.8763 14.7463 18.2139 14.7463 20.6223C15.0656 20.7078 15.0656 20.7078 15.3913 20.7951C15.754 21.0801 15.8597 21.2378 15.9564 21.7116C15.9737 22.5246 15.9637 22.9162 15.4921 23.581C14.9178 23.9912 14.3395 24.0296 13.6628 23.986C13.2949 23.905 13.2949 23.905 12.8716 23.581C12.557 22.8149 12.5 22.1365 12.6499 21.3134C13.0329 20.7735 13.0329 20.7735 13.4562 20.4495C13.5626 20.4495 13.669 20.4495 13.7787 20.4495C13.7787 18.1689 13.7787 15.8883 13.7787 13.5386C12.6079 13.5386 11.4372 13.5386 10.231 13.5386C10.2318 14.5075 10.2355 15.4752 10.2467 16.4438C10.2496 16.7731 10.2509 17.1024 10.2503 17.4317C10.2499 17.9058 10.2556 18.3794 10.2625 18.8534C10.261 19.0001 10.2595 19.1468 10.258 19.298C10.2649 20.0735 10.2649 20.0735 10.6125 20.7248C10.8533 20.9326 11.1061 21.1241 11.3598 21.3134C11.4656 21.7575 11.4656 21.7575 11.4404 22.1989C11.4354 22.3454 11.4304 22.4919 11.4253 22.6429C11.3598 23.0411 11.3598 23.0411 11.0373 23.5594C10.9308 23.5594 10.8244 23.5594 10.7147 23.5594C10.7147 23.6735 10.7147 23.7875 10.7147 23.905C8.96154 24.0379 8.96154 24.0379 8.33613 23.581C8.04906 22.8121 7.98605 22.129 8.13456 21.3134C8.51755 20.7735 8.51755 20.7735 8.94086 20.4495C9.0473 20.4495 9.15373 20.4495 9.26339 20.4495C9.26339 18.1689 9.26339 15.8883 9.26339 13.5386C8.41193 13.5386 7.56047 13.5386 6.68321 13.5386C6.68321 14.964 6.68321 16.3894 6.68321 17.858C5.72531 17.9435 5.72531 17.9435 4.74807 18.0307C4.58842 18.3158 4.42877 18.6009 4.26429 18.8946C3.77197 19.2169 3.4734 19.2404 2.89356 19.2293C2.22502 19.0375 1.9655 18.7614 1.52284 18.2035C1.46963 18.1465 1.41641 18.0895 1.36158 18.0307C1.23571 16.8941 1.23571 16.8941 1.52662 16.3266C1.8761 15.8932 2.16184 15.6528 2.68821 15.5242C3.34012 15.4891 3.69878 15.559 4.26429 15.9251C4.58681 16.303 4.58681 16.303 4.74807 16.8213C5.12058 16.8783 5.4931 16.9353 5.8769 16.9941C5.8769 15.8538 5.8769 14.7135 5.8769 13.5386C5.43974 13.5507 5.43974 13.5507 4.99374 13.5629C4.60949 13.5694 4.22523 13.5757 3.84097 13.5818C3.6491 13.5876 3.45724 13.5934 3.25955 13.5994C1.48619 13.6206 1.48619 13.6206 0.716535 12.8476C0.0187609 11.9229 -0.0267513 11.1128 0.00849685 9.93811C0.0963253 9.17686 0.315348 8.63746 0.716535 8.00994C0.806337 7.85672 0.89614 7.70349 0.988664 7.54562C1.72934 6.75208 2.53186 6.25627 3.589 6.22823C3.94986 6.22011 3.94986 6.22011 4.26429 6.10945C4.47561 5.78734 4.59037 5.46282 4.72665 5.09779C5.07964 4.38184 5.67671 3.99645 6.36068 3.69064C6.90991 3.61371 7.42372 3.62426 7.9733 3.69064C8.00656 3.57305 8.03982 3.45546 8.07408 3.3343C8.71142 1.87553 9.93257 0.95897 11.225 0.204156C11.9282 -0.0137869 12.617 0.00571539 13.3453 0.00843789ZM9.42465 2.99955C8.83754 3.78662 8.83754 3.78662 8.61834 4.72727C8.4801 4.71525 8.34187 4.70322 8.19944 4.69083C6.9352 4.60002 6.9352 4.60002 5.84666 5.1916C5.31428 5.79022 5.07059 6.31147 5.07059 7.14608C4.96915 7.13807 4.86771 7.13005 4.76319 7.12179C3.7469 7.07587 2.9981 7.18007 2.16789 7.83717C1.5816 8.45162 1.0505 9.01063 1.02331 9.91719C1.02518 10.1216 1.02705 10.3261 1.02898 10.5367C1.03043 10.7421 1.03189 10.9474 1.03339 11.159C1.03526 11.3171 1.03713 11.4752 1.03906 11.6382C1.14549 11.6382 1.25192 11.6382 1.36158 11.6382C1.42644 11.8039 1.42644 11.8039 1.49261 11.9729C1.66583 12.3865 1.66583 12.3865 2.16789 12.502C2.43576 12.5193 2.70422 12.5268 2.97257 12.5286C3.13874 12.5301 3.3049 12.5316 3.4761 12.5331C3.65831 12.5338 3.84052 12.5346 4.02826 12.5353C4.22024 12.5368 4.41222 12.5382 4.61002 12.5396C5.24669 12.5439 5.88337 12.5468 6.52005 12.5493C6.73943 12.5502 6.9588 12.5511 7.17818 12.552C8.0908 12.5558 9.00341 12.559 9.91604 12.561C11.223 12.5638 12.5299 12.5695 13.8368 12.5793C14.7563 12.586 15.6758 12.5894 16.5954 12.5903C17.1443 12.591 17.6932 12.593 18.2421 12.5986C18.8548 12.6041 19.4673 12.6041 20.0801 12.6028C20.3519 12.6071 20.3519 12.6071 20.6293 12.6114C21.6891 12.6103 21.6891 12.6103 22.599 12.0896C22.9925 11.6115 23.1029 11.4336 23.0915 10.8067C23.0298 9.82031 22.6866 9.18208 22.003 8.52826C21.0541 7.86013 20.055 7.71432 18.9391 7.6644C18.9384 7.41986 18.9384 7.41986 18.9378 7.17038C18.8867 5.35296 18.616 3.92593 17.414 2.544C16.1265 1.31848 14.7672 0.801126 13.0474 0.879722C11.4634 1.0653 10.4966 1.73924 9.42465 2.99955Z" fill="#3D1717"/>
<path d="M13.5268 2.03847C13.6479 2.04024 13.7691 2.04201 13.8939 2.04383C14.8503 2.0832 15.4923 2.27981 16.1977 2.99952C16.3016 3.09929 16.4055 3.19907 16.5126 3.30187C17.3152 4.11283 17.6698 4.69358 17.7498 5.89345C17.7619 6.0636 17.7739 6.23375 17.7863 6.40906C17.7942 6.53824 17.8021 6.66741 17.8103 6.8005C17.5432 6.86653 17.2741 6.92385 17.004 6.97327C16.7603 6.71218 16.7649 6.42561 16.7016 6.06622C16.5016 5.07212 16.1403 4.33701 15.3913 3.6906C14.284 3.23429 13.1278 3.20168 11.9872 3.53605C11.2005 3.93484 10.7509 4.77581 10.3922 5.5911C10.1262 5.53408 9.86008 5.47707 9.58594 5.41832C9.58594 4.5332 9.75187 4.12472 10.3318 3.48544C11.3155 2.46277 12.1741 2.00881 13.5268 2.03847Z" fill="#3D1717"/>
<path d="M4.26502 8.35558C4.31823 8.64065 4.37145 8.92573 4.42628 9.21944C4.33502 9.25129 4.24376 9.28314 4.14974 9.31595C3.76279 9.47988 3.46115 9.63009 3.13619 9.91053C2.97451 10.432 2.95748 10.9189 2.97493 11.4655C2.70884 11.4085 2.44276 11.3514 2.16862 11.2927C2.02984 9.62081 2.02984 9.62081 2.54154 8.94948C3.12289 8.38457 3.50638 8.33361 4.26502 8.35558Z" fill="#3D1717"/>
<path d="M20.0972 8.81982C20.7091 8.89267 21.0371 9.16392 21.5183 9.5649C21.9101 10.1945 21.8669 10.5518 21.8408 11.2926C21.628 11.3496 21.4151 11.4067 21.1958 11.4654C20.9499 10.9501 20.7218 10.4602 20.5507 9.91045C20.2314 9.91045 19.9121 9.91045 19.5832 9.91045C19.5763 9.62259 19.5766 9.33446 19.5832 9.04659C19.7444 8.87382 19.7444 8.87382 20.0972 8.81982Z" fill="#3D1717"/>
<path d="M14.2633 21.4644C14.7471 21.486 14.7471 21.486 14.9084 21.6587C14.9386 22.1662 14.9386 22.1662 14.9084 22.6954C14.802 22.8094 14.6955 22.9234 14.5859 23.0409C14.0542 22.9839 13.8404 22.9333 13.457 22.5226C13.574 21.4951 13.574 21.4951 14.2633 21.4644Z" fill="#3D1717"/>
<path d="M9.73798 21.4536C10.2318 21.486 10.2318 21.486 10.5544 21.8316C10.5012 22.4012 10.4539 22.6302 10.0706 23.041C9.33594 22.945 9.33594 22.945 9.10301 22.6954C9.08285 22.1771 9.08285 22.1771 9.10301 21.6588C9.26427 21.486 9.26427 21.486 9.73798 21.4536Z" fill="#3D1717"/>
<path d="M20.3912 16.6484C20.7685 16.6981 21.1449 16.7554 21.5201 16.8212C21.6309 17.2207 21.6309 17.2207 21.6813 17.6851C21.4999 18.009 21.4999 18.009 21.1975 18.2034C20.4846 18.1306 20.4846 18.1306 20.23 17.8578C20.2098 17.3395 20.2098 17.3395 20.23 16.8212C20.2832 16.7642 20.3364 16.7072 20.3912 16.6484Z" fill="#3D1717"/>
<path d="M3.04518 16.6162C3.45841 16.6486 3.45841 16.6486 3.78094 16.9941C3.82125 17.4261 3.82125 17.4261 3.78094 17.858C3.45841 18.2036 3.45841 18.2036 3.05526 18.2575C2.8557 18.2308 2.8557 18.2308 2.65211 18.2036C2.32958 17.6852 2.32958 17.6852 2.37998 17.2317C2.53492 16.6583 2.53492 16.6583 3.04518 16.6162Z" fill="#3D1717"/>
</svg>
