<svg width="17" height="17" viewBox="0 0 17 17" fill="none" xmlns="http://www.w3.org/2000/svg">
<path d="M9.09811 0C10.0262 0.00247494 10.4972 0.00742482 10.9039 0.0189745L11.064 0.0247494C11.2488 0.0313492 11.4311 0.039599 11.6514 0.0494988C12.5291 0.0907478 13.128 0.229345 13.6535 0.433115C14.198 0.64266 14.6567 0.926453 15.1154 1.38432C15.535 1.79659 15.8596 2.29548 16.0665 2.84618C16.2703 3.37169 16.4089 3.97063 16.4501 4.84923C16.46 5.06868 16.4683 5.251 16.4749 5.43662L16.4798 5.59666C16.4922 6.00255 16.4972 6.47362 16.4988 7.40172L16.4996 8.01716V9.09788C16.5016 9.69962 16.4953 10.3014 16.4807 10.9029L16.4757 11.063C16.4691 11.2486 16.4609 11.4309 16.451 11.6504C16.4097 12.529 16.2695 13.1271 16.0665 13.6534C15.8596 14.2041 15.535 14.703 15.1154 15.1153C14.7031 15.5349 14.2042 15.8596 13.6535 16.0665C13.128 16.2703 12.5291 16.4089 11.6514 16.4501L11.064 16.4749L10.9039 16.4798C10.4972 16.4914 10.0262 16.4971 9.09811 16.4988L8.48269 16.4996H7.40282C6.80082 16.5017 6.19881 16.4954 5.59699 16.4806L5.43695 16.4757C5.24111 16.4683 5.04531 16.4597 4.84957 16.4501C3.97182 16.4089 3.3729 16.2703 2.84658 16.0665C2.29619 15.8595 1.79759 15.5348 1.38557 15.1153C0.965625 14.7031 0.640727 14.2042 0.433572 13.6534C0.229808 13.1279 0.0912146 12.529 0.0499667 11.6504L0.025218 11.063L0.0210933 10.9029C0.00588602 10.3014 -0.000989368 9.69963 0.000469234 9.09788V7.40172C-0.00181416 6.79998 0.00423617 6.19824 0.0186184 5.59666L0.0243931 5.43662C0.0309927 5.251 0.0392423 5.06868 0.0491418 4.84923C0.0903897 3.97063 0.228983 3.37252 0.432747 2.84618C0.640385 2.29526 0.965855 1.79634 1.3864 1.38432C1.79818 0.964855 2.29648 0.640245 2.84658 0.433115C3.3729 0.229345 3.97099 0.0907478 4.84957 0.0494988C5.06901 0.039599 5.25215 0.0313492 5.43695 0.0247494L5.59699 0.0197995C6.19854 0.00514186 6.80027 -0.0011836 7.402 0.00082492L9.09811 0ZM8.25005 4.1249C7.15609 4.1249 6.10693 4.55949 5.33338 5.33306C4.55984 6.10662 4.12526 7.15581 4.12526 8.2498C4.12526 9.34379 4.55984 10.393 5.33338 11.1665C6.10693 11.9401 7.15609 12.3747 8.25005 12.3747C9.34402 12.3747 10.3932 11.9401 11.1667 11.1665C11.9403 10.393 12.3748 9.34379 12.3748 8.2498C12.3748 7.15581 11.9403 6.10662 11.1667 5.33306C10.3932 4.55949 9.34402 4.1249 8.25005 4.1249ZM8.25005 5.77486C8.57506 5.77481 8.89689 5.83877 9.19718 5.9631C9.49746 6.08742 9.77032 6.26968 10.0002 6.49946C10.23 6.72924 10.4124 7.00205 10.5368 7.3023C10.6612 7.60255 10.7253 7.92437 10.7253 8.24939C10.7254 8.5744 10.6614 8.89624 10.5371 9.19654C10.4128 9.49683 10.2305 9.7697 10.0008 9.99956C9.77098 10.2294 9.49819 10.4118 9.19794 10.5362C8.8977 10.6606 8.57588 10.7247 8.25088 10.7247C7.5945 10.7247 6.96501 10.464 6.50088 9.99985C6.03675 9.53571 5.776 8.9062 5.776 8.2498C5.776 7.59341 6.03675 6.96389 6.50088 6.49975C6.96501 6.03561 7.5945 5.77486 8.25088 5.77486M12.5819 2.88743C12.3084 2.88743 12.0461 2.99608 11.8527 3.18947C11.6594 3.38286 11.5507 3.64516 11.5507 3.91866C11.5507 4.19215 11.6594 4.45445 11.8527 4.64784C12.0461 4.84123 12.3084 4.94988 12.5819 4.94988C12.8554 4.94988 13.1177 4.84123 13.3111 4.64784C13.5045 4.45445 13.6131 4.19215 13.6131 3.91866C13.6131 3.64516 13.5045 3.38286 13.3111 3.18947C13.1177 2.99608 12.8554 2.88743 12.5819 2.88743Z" fill="white"/>
</svg>
