<svg width="18" height="17" viewBox="0 0 18 17" fill="none" xmlns="http://www.w3.org/2000/svg">
<path d="M3.66667 1.83425C3.66642 2.32048 3.47304 2.7867 3.12905 3.13034C2.78506 3.47399 2.31865 3.66691 1.83242 3.66667C1.34619 3.66642 0.879968 3.47304 0.536323 3.12905C0.192678 2.78506 -0.000242886 2.31865 2.29498e-07 1.83242C0.000243345 1.34619 0.193631 0.879968 0.537619 0.536323C0.881608 0.192678 1.34802 -0.000242886 1.83425 2.29498e-07C2.32048 0.000243345 2.7867 0.193631 3.13034 0.537619C3.47399 0.881608 3.66691 1.34802 3.66667 1.83425ZM3.72167 5.02425H0.0550002V16.5009H3.72167V5.02425ZM9.515 5.02425H5.86667V16.5009H9.47833V10.4784C9.47833 7.12342 13.8508 6.81175 13.8508 10.4784V16.5009H17.4717V9.23175C17.4717 3.57592 11 3.78675 9.47833 6.56425L9.515 5.02425Z" fill="white"/>
</svg>
