<svg width="22" height="14" viewBox="0 0 22 14" fill="none" xmlns="http://www.w3.org/2000/svg">
<path d="M8.8 10L14.509 7L8.8 4V10ZM21.516 2.17C21.659 2.64 21.758 3.27 21.824 4.07C21.901 4.87 21.934 5.56 21.934 6.16L22 7C22 9.19 21.824 10.8 21.516 11.83C21.241 12.73 20.603 13.31 19.613 13.56C19.096 13.69 18.15 13.78 16.698 13.84C15.268 13.91 13.959 13.94 12.749 13.94L11 14C6.391 14 3.52 13.84 2.387 13.56C1.397 13.31 0.759 12.73 0.484 11.83C0.341 11.36 0.242 10.73 0.176 9.93C0.0990001 9.13 0.0659999 8.44 0.0659999 7.84L0 7C0 4.81 0.176 3.2 0.484 2.17C0.759 1.27 1.397 0.69 2.387 0.44C2.904 0.31 3.85 0.22 5.302 0.16C6.732 0.0899998 8.041 0.0599999 9.251 0.0599999L11 0C15.609 0 18.48 0.16 19.613 0.44C20.603 0.69 21.241 1.27 21.516 2.17Z" fill="white"/>
</svg>
