<svg width="28" height="28" viewBox="0 0 28 28" fill="none" xmlns="http://www.w3.org/2000/svg">
<path d="M17.5002 2.33301H7.00111C6.38232 2.33301 5.78888 2.57882 5.35133 3.01637C4.91378 3.45392 4.66797 4.04736 4.66797 4.66615V23.3313C4.66797 23.9501 4.91378 24.5435 5.35133 24.9811C5.78888 25.4186 6.38232 25.6644 7.00111 25.6644H21C21.6187 25.6644 22.2122 25.4186 22.6497 24.9811C23.0873 24.5435 23.3331 23.9501 23.3331 23.3313V8.16586L17.5002 2.33301Z" stroke="#EF7F2C" stroke-width="2" stroke-linecap="round" stroke-linejoin="round"/>
<path d="M16.332 2.33301V6.99929C16.332 7.61808 16.5778 8.21152 17.0154 8.64907C17.4529 9.08662 18.0464 9.33243 18.6652 9.33243H23.3315" stroke="#EF7F2C" stroke-width="2" stroke-linecap="round" stroke-linejoin="round"/>
<path d="M10.5 15.4982L12.8331 17.8313L17.4994 13.165" stroke="#EF7F2C" stroke-width="2" stroke-linecap="round" stroke-linejoin="round"/>
</svg>
