<svg width="28" height="28" viewBox="0 0 28 28" fill="none" xmlns="http://www.w3.org/2000/svg">
<path d="M18.0544 15.0371L19.8218 24.9833C19.8416 25.1004 19.8251 25.2208 19.7747 25.3283C19.7242 25.4358 19.6421 25.5254 19.5394 25.585C19.4366 25.6446 19.3182 25.6714 19.1998 25.6619C19.0814 25.6523 18.9687 25.6069 18.8768 25.5316L14.7005 22.397C14.4989 22.2464 14.254 22.165 14.0023 22.165C13.7507 22.165 13.5058 22.2464 13.3041 22.397L9.12082 25.5304C9.02904 25.6056 8.91651 25.651 8.79826 25.6605C8.68001 25.6701 8.56165 25.6434 8.45898 25.5839C8.35631 25.5245 8.27421 25.4351 8.22363 25.3278C8.17305 25.2205 8.1564 25.1003 8.1759 24.9833L9.94209 15.0371" stroke="#EF7F2C" stroke-width="2" stroke-linecap="round" stroke-linejoin="round"/>
<path d="M13.9994 16.3319C17.8651 16.3319 20.9988 13.1981 20.9988 9.33243C20.9988 5.46676 17.8651 2.33301 13.9994 2.33301C10.1337 2.33301 7 5.46676 7 9.33243C7 13.1981 10.1337 16.3319 13.9994 16.3319Z" stroke="#EF7F2C" stroke-width="2" stroke-linecap="round" stroke-linejoin="round"/>
</svg>
