<svg width="28" height="28" viewBox="0 0 28 28" fill="none" xmlns="http://www.w3.org/2000/svg">
<path d="M18.664 24.4984V22.1653C18.664 20.9277 18.1724 19.7408 17.2973 18.8657C16.4222 17.9906 15.2353 17.499 13.9977 17.499H6.99831C5.76074 17.499 4.57385 17.9906 3.69875 18.8657C2.82366 19.7408 2.33203 20.9277 2.33203 22.1653V24.4984" stroke="#EF7F2C" stroke-width="2" stroke-linecap="round" stroke-linejoin="round"/>
<path d="M18.6641 3.64941C19.6647 3.90882 20.5509 4.49315 21.1835 5.31068C21.8161 6.12821 22.1593 7.13266 22.1593 8.16637C22.1593 9.20008 21.8161 10.2045 21.1835 11.0221C20.5509 11.8396 19.6647 12.4239 18.6641 12.6833" stroke="#EF7F2C" stroke-width="2" stroke-linecap="round" stroke-linejoin="round"/>
<path d="M25.6638 24.4982V22.165C25.663 21.1311 25.3189 20.1268 24.6854 19.3096C24.052 18.4925 23.1651 17.9089 22.1641 17.6504" stroke="#EF7F2C" stroke-width="2" stroke-linecap="round" stroke-linejoin="round"/>
<path d="M10.4983 12.8326C13.0754 12.8326 15.1646 10.7434 15.1646 8.16628C15.1646 5.58917 13.0754 3.5 10.4983 3.5C7.9212 3.5 5.83203 5.58917 5.83203 8.16628C5.83203 10.7434 7.9212 12.8326 10.4983 12.8326Z" stroke="#EF7F2C" stroke-width="2" stroke-linecap="round" stroke-linejoin="round"/>
</svg>
